
        <svg xmlns="http://www.w3.org/2000/svg" xmlns:xlink="http://www.w3.org/1999/xlink" version="1.1" width="3300" 
        height="2490.475973605575" viewBox="0 0 3300 2490.475973605575">
			<rect fill="#ffffff" width="3300" height="2490.475973605575"/>
			<g transform="scale(15) translate(10, 10)">
				<defs id="SvgjsDefs3268"></defs><g id="SvgjsG3269" featureKey="S6ay6y-0" transform="matrix(-1.1363616659655729,0,0,1.1363616659655729,156.81808167270023,-6.81816999579344)" fill="#000000"><g xmlns="http://www.w3.org/2000/svg" transform="translate(0,-952.36218)"><path style="text-indent:0;text-transform:none;direction:ltr;block-progression:tb;baseline-shift:baseline;color:;enable-background:accumulate;" d="m 13.540789,1013.168 c -4.1612604,0 -7.5408665,3.3922 -7.5408665,7.5693 0,4.1771 3.3796061,7.605 7.5408665,7.605 0.813543,0 1.613976,-0.1361 2.383228,-0.3928 12.281102,18.8997 36.649842,23.2608 54.493227,13.032 0.521221,-0.2991 0.724607,-1.0475 0.426614,-1.571 -0.297992,-0.5234 -1.043503,-0.7275 -1.565078,-0.4284 -16.772953,9.6153 -39.67122,5.6292 -51.327282,-12.1037 1.894251,-1.3812 3.130157,-3.6195 3.130157,-6.1411 0,-4.1771 -3.379252,-7.5693 -7.540866,-7.5693 z" fill="#000000" fill-opacity="1" fill-rule="evenodd" stroke="none" marker="none" visibility="visible" display="inline" overflow="visible"></path><path style="text-indent:0;text-transform:none;direction:ltr;block-progression:tb;baseline-shift:baseline;color:;enable-background:accumulate;" d="m 70.417244,970.57299 c -0.951023,0.12132 -1.237323,1.69026 -0.391181,2.14225 13.429842,8.21899 20.928543,24.30182 17.64248,40.55986 -0.392953,-0.067 -0.80185,-0.107 -1.209331,-0.107 -4.161259,0 -7.540866,3.3922 -7.540866,7.5692 0,4.1771 3.379607,7.605 7.540866,7.605 4.16126,0 7.540866,-3.4279 7.540866,-7.605 0,-2.9516 -1.686968,-5.51 -4.161614,-6.748 3.607441,-17.29107 -4.331338,-34.48188 -18.638503,-43.23773 -0.189921,-0.12122 -0.415984,-0.18423 -0.64063,-0.17852 -0.04784,-0.003 -0.09425,-0.003 -0.142087,0 z" fill="#000000" fill-opacity="1" fill-rule="evenodd" stroke="none" marker="none" visibility="visible" display="inline" overflow="visible"></path><path style="text-indent:0;text-transform:none;direction:ltr;block-progression:tb;baseline-shift:baseline;color:;enable-background:accumulate;" d="m 50.000001,958.36218 c -4.012441,0 -7.27441,3.16987 -7.505079,7.14083 -17.197086,3.19362 -29.727637,16.85266 -32.5821254,33.06201 a 1.1383515,1.1426463 0 1 0 2.2407874,0.39275 c 2.681221,-15.22486 14.388307,-28.07084 30.518858,-31.1697 0.826653,3.28539 3.802677,5.71266 7.327559,5.71266 4.161259,0 7.540866,-3.39219 7.540866,-7.56928 0,-4.17708 -3.379607,-7.56927 -7.540866,-7.56927 z" fill="#000000" fill-opacity="1" fill-rule="evenodd" stroke="none" marker="none" visibility="visible" display="inline" overflow="visible"></path></g></g><g id="SvgjsG3270" featureKey="j5pGhi-0" transform="matrix(1.7153418741842696,0,0,1.7153418741842696,-1.122348246679594,112.5794306858423)" fill="#000000"><path d="M0.6543 4.98 l1.5723 0 l4.7949 11.191 l4.8828 -11.191 l1.582 0 l-6.3086 14.482 l-0.3125 0 z M16.3544734375 4.3260000000000005 q0.46875 0 0.8056640625 0.33203125 t0.33691 0.80078 t-0.33691 0.80566 t-0.80566 0.33691 t-0.80078 -0.33691 t-0.33203 -0.80566 t0.33203 -0.80078 t0.80078 -0.33203 z M15.6708734375 8.73 l1.377 0 l0 10.713 l-1.377 0 l0 -10.713 z M26.224646875 9.648 l-0.87891 0.91797 q-1.11328125 -1.07421875 -2.158203125 -1.07421875 q-0.673828125 0 -1.15234375 0.439453125 t-0.47852 1.0449 q0 0.5078125 0.400390625 0.9765625 q0.390625 0.498046875 1.650390625 1.142578125 q1.54296875 0.791015625 2.08984375 1.533203125 q0.537109375 0.751953125 0.537109375 1.689453125 q0 1.30859375 -0.9228515625 2.221679688 t-2.3096 0.91309 q-0.927734375 0 -1.772460938 -0.3955078125 t-1.3916 -1.1084 l0.86914 -0.98633 q1.0546875 1.19140625 2.236328125 1.19140625 q0.8203125 0 1.401367188 -0.5322265625 t0.58105 -1.2451 q0 -0.595703125 -0.380859375 -1.0546875 t-1.7285 -1.1523 q-1.455078125 -0.732421875 -1.97265625 -1.474609375 q-0.52734375 -0.72265625 -0.52734375 -1.66015625 q0 -1.220703125 0.8349609375 -2.026367188 t2.0947 -0.80566 q1.474609375 0 2.978515625 1.4453125 z M30.0790828125 4.3260000000000005 q0.46875 0 0.8056640625 0.33203125 t0.33691 0.80078 t-0.33691 0.80566 t-0.80566 0.33691 t-0.80078 -0.33691 t-0.33203 -0.80566 t0.33203 -0.80078 t0.80078 -0.33203 z M29.3954828125 8.73 l1.377 0 l0 10.713 l-1.377 0 l0 -10.713 z M39.62695625 8.203 q2.470703125 0 4.1015625 1.787109375 q1.474609375 1.640625 1.474609375 3.876953125 t-1.5625 3.9111 t-4.0137 1.6748 q-2.4609375 0 -4.018554688 -1.674804688 t-1.5576 -3.9111 q0 -2.2265625 1.474609375 -3.8671875 q1.630859375 -1.796875 4.1015625 -1.796875 z M39.62695625 9.551 q-1.708984375 0 -2.939453125 1.26953125 t-1.2305 3.0664 q0 1.162109375 0.5615234375 2.172851563 t1.5186 1.5527 t2.0898 0.54199 q1.15234375 0 2.104492188 -0.5419921875 t1.5088 -1.5527 t0.55664 -2.1729 q0 -1.796875 -1.23046875 -3.06640625 t-2.9395 -1.2695 z M48.6767203125 15.3809 l-0.019531 -1.1426 q-0.029296875 -0.83984375 0.068359375 -1.42578125 q0.21484375 -1.845703125 0.9375 -2.705078125 q0.703125 -0.751953125 1.435546875 -1.162109375 q1.2109375 -0.517578125 2.763671875 -0.48828125 q1.2109375 0 2.241210938 0.6103515625 t1.4697 1.6406 t0.43945 3.2275 l0 5.5078 l-1.3672 0 l0 -5.1074 q0 -1.85546875 -0.15625 -2.48046875 q-0.244140625 -1.064453125 -0.966796875 -1.508789063 t-2.1387 -0.44434 q-1.25 0 -2.2265625 0.72265625 t-0.9082 1.9727 q-0.185546875 0.80078125 -0.185546875 2.919921875 l0 3.9258 l-1.3867 0 l0 -4.0625 z M62.09178125 4.941000000000001 l1.4551 0 l0 6.0742 l7.373 0 l0 -6.0742 l1.4453 0 l0 14.482 l-1.4453 0 l0 -6.9824 l-7.373 0 l0 6.9824 l-1.4551 0 l0 -14.482 z M81.6396515625 8.203 q2.470703125 0 4.1015625 1.787109375 q1.50390625 1.630859375 1.50390625 3.876953125 q0.01953125 5.546875 0 5.634765625 l-1.4551 0 l0 -2.4316 q-1.142578125 2.12890625 -4.150390625 2.3828125 q-2.4609375 0 -4.018554688 -1.674804688 t-1.5576 -3.9111 q0 -2.2265625 1.474609375 -3.8671875 q1.630859375 -1.796875 4.1015625 -1.796875 z M81.6396515625 9.551 q-1.708984375 0 -2.939453125 1.26953125 t-1.2305 3.0664 q0 1.162109375 0.6298828125 2.236328125 t2.1338 1.8164 q3.76953125 0.83984375 5.361328125 -3.427734375 q0.087890625 -1.3671875 -0.29296875 -2.6171875 q-0.2734375 -0.56640625 -0.751953125 -1.07421875 q-1.201171875 -1.26953125 -2.91015625 -1.26953125 z M89.41992225 8.75 l1.416 0 l3.2813 7.7832 l3.4375 -7.7832 l0.24414 0 l3.418 7.7832 l3.3398 -7.7832 l1.4453 0 l-4.6484 10.713 l-0.27344 0 l-3.3984 -7.666 l-3.4375 7.666 l-0.25391 0 z M108.5381140625 4.59 l1.3867 0 l0 8.457 l4.9512 -4.3164 l2.0313 0 l-4.4824 4.0723 l4.8242 6.6406 l-1.9531 0 l-4.2188 -5.7617 l-1.1523 0.94727 l0 4.8145 l-1.3867 0 l0 -14.854 z"></path></g>
			</g>
		</svg>
	